<?xml version="1.0" encoding="UTF-8"?>
<svg id="b" data-name="Layer 2" xmlns="http://www.w3.org/2000/svg" width="442.31" height="396.573" viewBox="0 0 442.31 396.573">
  <g id="c" data-name="Layer 1">
    <g>
      <g>
        <path d="m44.118,3.254c2.51,0,4.661.508,6.447,1.518,1.786,1.013,3.205,3.361,4.265,7.049,1.057,3.688,1.586,9.437,1.586,17.245v101.951c0,8.389-.297,14.717-.893,18.98-.595,4.268-1.654,7.125-3.173,8.569-1.522,1.447-3.67,2.169-6.447,2.169-.531,0-.794.508-.794,1.518s.263,1.518.794,1.518c6.611-.146,13.255-.254,19.933-.325,6.676-.074,13.256.034,19.736.325.661,0,1.023-.505,1.091-1.518.065-1.01-.297-1.518-1.091-1.518-1.586,0-3.142-.142-4.661-.435-1.521-.288-2.875-1.193-4.066-2.711-1.19-1.518-2.151-4.155-2.877-7.917-.727-3.759-1.091-9.181-1.091-16.269v-58.568c10.048-.576,20.164-.576,30.348,0v56.615c0,8.389-.431,14.68-1.289,18.872-.862,4.196-2.182,6.979-3.968,8.352-1.784,1.376-4,2.061-6.645,2.061-.663,0-.991.508-.991,1.518s.328,1.518.991,1.518c13.092-.721,40.207-.91,53.826-.583.039,0,.073-.003.108-.005.065,0,.138.005.203.005.661,0,1.104-.209,1.329-1.368.225-1.156.006-1.736-.655-1.736-3.307,0-5.74-1.085-7.302-3.253-1.561-2.169-2.203-5.169-1.919-9.003.28-3.829,1.363-8.205,3.245-13.123,4.273-11.372,8.592-22.727,12.933-34.074,7.657-.083,15.261-.085,22.826-.027l-.195,35.836c.052,4.484-.339,8.534-1.171,12.148-.836,3.616-2.257,6.507-4.265,8.677-2.009,2.169-4.812,3.329-8.41,3.471-.531,0-.927.508-1.188,1.518-.265,1.013-.066,1.518.598,1.518,3.862-.146,8.106-.217,12.736-.217h13.885c4.938-.02,9.466.061,13.496.024,6.879-.062,13.171-.275,19.652-.35,6.477-.071,13.156.037,20.033.325.794,0,1.19-.468,1.19-1.41s-.396-1.41-1.19-1.41c-3.174,0-5.752-.722-7.736-2.169-1.984-1.444-3.406-4.155-4.265-8.135-.861-3.976-1.289-9.723-1.289-17.244v-43.384c1.85,1.013,3.8,1.882,5.851,2.603,2.049.726,4.395,1.085,7.042,1.085,5.951,0,11.138-1.769,15.57-5.314,4.429-3.542,7.9-8.531,10.414-14.967,2.51-6.433,3.768-13.991,3.768-22.668,0-9.398-1.456-17.787-4.363-25.163-2.91-7.375-7.011-13.194-12.298-17.462-5.291-4.264-11.439-6.399-18.446-6.399-6.083,0-12.134-.108-18.149-.325-6.018-.217-12.068-.542-18.149-.977-.793-.142-1.19.325-1.19,1.41s.397,1.628,1.19,1.628c3.967.146,6.809,1.159,8.529,3.036,1.717,1.881,2.777,4.955,3.174,9.219.396,4.268.595,10.162.595,17.678v100.433c0,7.375-.365,13.015-1.091,16.92-1.817,14.358-16.214,12.954-16.537-1.519-.538-4.047-.793-9.544-.763-16.486l.123-110.845c.067-3.759.146-7.229.238-10.412.087-3.179.267-6.145.539-8.894.147-1.444-.372-2.169-1.562-2.169-3.865.146-7.983.254-12.36.325-4.379.075-8.523-.033-12.433-.325-.766-.142-1.253.325-1.464,1.41-.211,1.085.08,1.628.874,1.628,2.113,0,3.871.65,5.274,1.952,1.398,1.302,2.438,3.942,3.122,7.917.587,3.438.915,8.47.985,15.087l-40.26,104.327c-2.1,5.352-4.355,10.161-6.771,14.426-.907,1.602-1.813,3.075-2.717,4.419-1.761,2.619-5.581,1.597-6.036-1.615-.005-.031-.009-.062-.013-.094-.531-3.759-.794-9.181-.794-16.269V27.549c0-8.677.626-14.893,1.885-18.655,1.254-3.754,3.663-5.635,7.226-5.639.765-.001,1.403-.687,1.401-1.525-.001-1.006-.465-1.513-1.388-1.513-3.44.292-7.507.435-12.199.435s-9.322-.071-13.885-.217c-4.562-.143-8.563-.217-11.999-.217-.663,0-.992.509-.992,1.518s.328,1.52.992,1.52c2.247,0,4.295.542,6.148,1.627,1.851,1.085,3.372,3.471,4.562,7.159,1.19,3.686,1.785,9.435,1.785,17.244v39.045c-10.184.435-20.3.435-30.348,0V27.765c0-8.819.958-15.11,2.877-18.872,1.915-3.759,4.859-5.639,8.827-5.639.793,0,1.19-.506,1.19-1.52s-.397-1.518-1.19-1.518c-6.878.435-13.785.58-20.727.435-6.943-.142-13.522-.289-19.737-.435-.793,0-1.19.509-1.19,1.518s.397,1.52,1.19,1.52Zm183.682,3.036h1.19c8.198,0,14.282,4.05,18.248,12.148,3.967,8.1,5.95,18.801,5.95,32.103,0,7.666-.595,14.425-1.785,20.282-1.19,5.857-2.845,10.379-4.958,13.557-2.117,3.183-4.631,4.772-7.537,4.772-3.307,0-5.985-1.698-8.033-5.097-2.052-3.397-3.075-8.785-3.075-16.161V6.291Zm-66.003,71.691c4.87-12.583,9.675-25.143,14.45-37.694l-.297,54.745c-6.838.141-13.727.087-20.656-.126,2.165-5.643,4.322-11.289,6.503-16.925Z" fill="#f2ede7"/>
        <path d="m263.302,3.254c3.967.146,6.809,1.159,8.53,3.036,1.716,1.881,2.776,4.955,3.174,9.219.396,4.268.595,10.162.595,17.678v100.433c0,7.375-.365,13.015-1.091,16.92-.729,3.905-1.854,6.582-3.372,8.026-1.521,1.447-3.471,2.169-5.851,2.169-.529,0-.794.508-.794,1.518s.264,1.518.794,1.518c6.874-.291,13.553-.468,20.034-.542,6.477-.071,13.156.037,20.033.325.794,0,1.19-.468,1.19-1.41s-.396-1.41-1.19-1.41c-3.174,0-5.752-.722-7.736-2.169-1.984-1.444-3.406-4.155-4.264-8.135-.861-3.976-1.289-9.723-1.289-17.244v-43.384c1.851,1.013,3.8,1.882,5.851,2.603,2.049.726,4.395,1.085,7.042,1.085,5.95,0,11.138-1.769,15.57-5.314,4.429-3.542,7.9-8.531,10.414-14.967,2.51-6.433,3.768-13.991,3.768-22.668,0-9.398-1.456-17.787-4.363-25.163-2.911-7.375-7.011-13.194-12.298-17.462-5.291-4.264-11.439-6.399-18.446-6.399-6.083,0-12.134-.108-18.149-.325-6.018-.217-12.068-.542-18.149-.977-.793-.142-1.19.325-1.19,1.41s.397,1.628,1.19,1.628Zm28.761,3.036h1.19c8.198,0,14.282,4.05,18.248,12.148,3.967,8.1,5.95,18.801,5.95,32.103,0,7.666-.595,14.425-1.784,20.282-1.19,5.857-2.846,10.379-4.959,13.557-2.117,3.183-4.631,4.772-7.537,4.772-3.307,0-5.985-1.698-8.033-5.097-2.052-3.397-3.075-8.785-3.075-16.161V6.291Z" fill="#f2ede7"/>
        <path d="m322.408,3.254c2.645,0,5.059,2.097,7.241,6.29,2.182,4.195,4.726,11.138,7.636,20.824,3.304,10.704,6.611,21.403,9.918,32.104,2.048,6.635,4.099,13.268,6.149,19.903v43.654c0,8.244-.331,14.896-.991,19.957-.663,5.063-2.052,8.785-4.165,11.171-2.117,2.386-5.424,3.579-9.918,3.579-.793,0-1.19.508-1.19,1.518s.397,1.518,1.19,1.518c7.405-.576,15.173-.901,23.307-.977,8.132-.071,15.833.255,23.107.977.923.142,1.388-.325,1.388-1.41s-.465-1.627-1.388-1.627c-4.631,0-7.968-1.156-10.017-3.471-2.052-2.312-3.341-5.999-3.868-11.063-.531-5.06-.794-11.567-.794-19.522v-43.712l16.661-51.515c1.718-5.206,3.338-9.941,4.86-14.208,1.519-4.264,3.173-7.663,4.958-10.195,1.785-2.529,3.735-3.796,5.851-3.796.66,0,.992-.506.992-1.52s-.332-1.518-.992-1.518h-9.322c-3.44,0-6.843-.034-10.215-.108-3.372-.071-6.316-.108-8.827-.108-.663,0-.992.542-.992,1.627s.329,1.628.992,1.628c3.437,0,5.982,1.159,7.637,3.47,1.652,2.315,2.51,5.424,2.578,9.328.065,3.904-.694,8.316-2.281,13.231-2.646,8.677-5.354,17.354-8.132,26.03-1.941,6.064-3.837,12.128-5.713,18.191-1.949-6.531-3.909-13.037-5.89-19.493-2.711-8.819-5.39-17.641-8.033-26.464-1.323-4.481-2.182-8.569-2.579-12.256-.397-3.688.065-6.616,1.388-8.785,1.32-2.169,3.7-3.253,7.141-3.253.794,0,1.19-.543,1.19-1.628s-.396-1.627-1.19-1.627c-3.703.146-7.804.254-12.297.325-4.497.074-8.96.108-13.389.108s-8.429-.072-12.001-.217c-.659,0-.991.509-.991,1.518s.331,1.52.991,1.52Z" fill="#f2ede7"/>
        <path d="m218.278,332.982c6.15-6.145,10.91-14.859,14.282-26.139,3.372-11.28,5.057-24.512,5.057-39.696,0-12.289-1.323-23.752-3.967-34.381-2.647-10.628-6.348-19.919-11.108-27.874-4.76-7.951-10.413-14.171-16.959-18.655-6.545-4.48-13.72-6.724-21.52-6.724-3.967,0-8.465-.034-13.488-.108l-44.628.325-37.981-.325c-4.695.074-9.158.037-13.388-.108-1.19,0-1.919.796-2.182,2.385l-20.279,113.899c-.58-2.24-1.159-4.55-1.737-6.959l-18.05-88.502c-.529-2.89-1.159-6.037-1.885-9.435-.727-3.397-1.289-6.541-1.685-9.437-.133-.721-.465-1.227-.992-1.518-.529-.288-1.125-.433-1.784-.433-3.307.146-7.176.183-11.605.108-4.432-.071-8.825-.179-13.19-.326-.793,0-1.19.509-1.19,1.52s.396,1.518,1.19,1.518c2.777.146,4.99.868,6.645,2.169,1.652,1.301,3.074,3.361,4.264,6.181,1.191,2.821,2.247,6.546,3.174,11.171l1.714,7.921-2.507,107.48c-.134,7.954-1.225,13.703-3.273,17.245-2.052,3.545-4.928,5.314-8.629,5.314-.529,0-.793.508-.793,1.518s.263,1.518.793,1.518c3.834-.146,8.396-.254,13.686-.325,5.288-.074,10.048.034,14.282.325.793,0,1.19-.505,1.19-1.518s-.397-1.518-1.19-1.518c-3.571,0-6.348-1.698-8.331-5.098-1.983-3.397-2.91-9.144-2.777-17.245l1.483-89.513,25.095,115.977c.13.577.396.902.794.977.396.071.66-.183.793-.76l26.173-141.086,2.587,114.188c.264,7.954-.927,13.666-3.57,17.137-2.646,3.47-5.95,5.206-9.917,5.206-.927,0-1.389.542-1.389,1.627s.462,1.627,1.389,1.627c3.833-.146,8.063-.29,12.694-.325l120.989-.108c8.33,0,15.57-3.07,21.718-9.219Zm-110.777-18.98c-.221,7.868.579,24.324-7.012,24.738-2.32.127-4.446-1.393-5.569-3.616-2.98-5.9-2.026-13.348-2.688-23.075l-1.784-103.903c-.134-9.979.724-16.775,2.578-20.391.535-1.046,1.138-1.945,1.808-2.698,1.896-2.133,4.915-2.689,7.282-1.225.01.006.02.012.03.019,1.851,1.159,3.205,3.471,4.067,6.942.859,3.47,1.289,8.751,1.289,15.834v107.375Zm59.702-102.169c-.102,25.162,0,100.65,0,100.65,0,9.979-.595,16.995-1.785,21.041h0c-.722,2.427-4.005,1.819-3.957-.732l.585-30.721c.13-1.156-.331-1.806-1.388-1.952-1.06-.142-1.586.362-1.586,1.518-.53,10.992-2.712,19.739-6.546,26.247-3.837,6.508-9.059,9.836-15.669,9.979-4.761,0-8.068-1.628-9.918-4.881-1.853-3.254-2.776-8.206-2.776-14.859v-62.605l6.545.349c6.744.292,11.47,2.423,14.182,6.399,2.709,3.98,4.066,9.365,4.066,16.161,0,1.013.497,1.519,1.487,1.519s1.489-.506,1.489-1.519c-.267-7.809-.397-15.943-.397-24.403s.13-16.594.397-24.403c0-1.156-.497-1.736-1.489-1.736s-1.487.58-1.487,1.736c0,7.666-1.388,13.052-4.165,16.159-2.777,3.112-7.472,4.81-14.083,5.098l-6.545.175v-65.901h9.917c7.405,0,12.694,2.424,15.868,7.267,3.174,4.847,4.76,11.679,4.76,20.499,0,1.013.526,1.519,1.586,1.519s1.52-.506,1.389-1.519c-.267-6.362-.366-12.724-.298-19.089.013-1.24.024-2.448.033-3.643.038-4.699,6.02-6.97,7.965-1.861,1.341,3.522,1.843,17.614,1.82,23.508Zm19.339,119.956c-1.786-3.904-2.677-10.337-2.677-19.306v-127.98h.198c7.141,0,13.354,3.653,18.645,10.953,5.287,7.304,9.422,17.174,12.397,29.61,2.975,12.439,4.463,26.464,4.463,42.082,0,21.692-2.083,38.866-6.249,51.518-4.165,12.655-10.15,18.98-17.95,18.98-4.101,0-7.042-1.952-8.827-5.856Z" fill="#f2ede7"/>
        <path d="m441.518,339.597c-2.778,0-4.928-.576-6.447-1.735-1.522-1.156-2.612-3.722-3.273-7.702-.663-3.976-1.06-10.011-1.19-18.112l-1.784-103.903c-.134-9.979.725-16.775,2.578-20.391,1.85-3.612,4.494-5.494,7.934-5.639.66,0,.992-.543.992-1.627s-.465-1.553-1.389-1.411c-3.703.147-7.903.255-12.595.326-4.695.074-9.158.037-13.388-.108-1.19,0-1.919.796-2.182,2.385l-20.28,113.899c-.58-2.24-1.159-4.55-1.737-6.959l-18.05-88.502c-.53-2.89-1.159-6.037-1.885-9.435-.728-3.397-1.289-6.541-1.686-9.437-.133-.721-.465-1.227-.992-1.518-.529-.288-1.125-.433-1.784-.433l-32.826.217c-3.372,0-6.515-.034-9.422-.108-2.91-.071-5.489-.179-7.735-.326-.664,0-.992.509-.992,1.52s.328,1.518.992,1.518c2.38,0,4.562.471,6.546,1.409,1.983.943,3.601,2.786,4.859,5.531,1.255,2.75,1.885,6.799,1.885,12.148v89.587c0,6.654-.168,12.764-.496,18.33-.331,5.568-1.06,10.449-2.182,14.641-1.125,4.197-2.776,7.45-4.958,9.761-2.182,2.315-5.126,3.471-8.827,3.471-4.76,0-8.364-2.024-10.81-6.074-2.448-4.047-4.066-9.724-4.859-17.027-.794-7.301-1.19-15.653-1.19-25.054v-85.682c0-7.518,1.057-12.908,3.173-16.161,2.114-3.254,5.288-4.881,9.522-4.881.793,0,1.19-.506,1.19-1.518s-.397-1.52-1.19-1.52c-2.514.147-5.523.255-9.025.326-3.505.074-7.209.108-11.108.108l-33.818.217c-3.703,0-7.339-.034-10.909-.108-3.57-.071-6.812-.251-9.72-.543-.663,0-.992.509-.992,1.52s.329,1.518.992,1.518c3.174.146,5.718.868,7.636,2.169,1.915,1.301,3.304,3.87,4.165,7.7.859,3.833,1.29,9.652,1.29,17.462v96.528c0,8.389-.233,15.005-.695,19.848-.465,4.847-1.422,8.352-2.877,10.52-1.456,2.169-3.769,3.254-6.942,3.254-.793,0-1.19.508-1.19,1.518s.397,1.518,1.19,1.518c6.744-.291,13.256-.434,19.537-.434s12.859.143,19.737.434c.66,0,.991-.505.991-1.518s-.331-1.518-.991-1.518c-1.72-.143-3.341-.542-4.861-1.193-1.521-.651-2.81-2.024-3.867-4.121-1.06-2.095-1.885-5.24-2.479-9.437-.596-4.192-.893-9.833-.893-16.919v-96.528c.791-12.779-1.616-28.879,7.46-28.879,5.251,0,6.609,4.396,7.248,6.691.796,2.853.762,6.645.762,11.994v89.587c0,9.402,1.156,18.113,3.471,26.138,2.312,8.026,5.817,14.425,10.513,19.197,4.692,4.772,10.612,7.159,17.753,7.159,6.874,0,12.694-2.204,17.455-6.616,4.76-4.41,8.396-10.593,10.909-18.547,2.511-7.951,3.769-17.208,3.769-27.765v-87.2c0-7.518.725-12.908,2.182-16.161.549-1.23,1.335-2.838,2.408-2.885,2.895-.129,4.334,4.209,4.857,6.108.819,2.975,1.724,6.793,2.651,11.419l1.714,7.921-2.507,107.48c-.134,7.954-1.225,13.703-3.273,17.245-2.051,3.545-4.928,5.314-8.628,5.314-.529,0-.793.508-.793,1.518s.264,1.518.793,1.518c3.833-.146,8.396-.254,13.686-.325,5.288-.074,10.048.034,14.281.325.793,0,1.19-.505,1.19-1.518s-.397-1.518-1.19-1.518c-3.571,0-6.348-1.698-8.331-5.098-1.983-3.397-2.91-9.144-2.777-17.245l1.483-89.513,25.096,115.977c.13.577.396.902.794.977.396.071.659-.183.793-.76l26.174-141.086,2.587,114.188c.263,7.954-.927,13.666-3.57,17.137-2.646,3.47-5.951,5.206-9.917,5.206-.927,0-1.389.542-1.389,1.627s.462,1.627,1.389,1.627c3.834-.146,8.063-.254,12.694-.325,4.627-.074,9.354-.108,14.182-.108s9.288.143,13.389.434c.526,0,.793-.505.793-1.518s-.266-1.518-.793-1.518Z" fill="#f2ede7"/>
      </g>
      <g>
        <path d="m172.229,361.703c-.262.675-.808,1.218-1.507,1.5-2.253,1.13-4.717-.519-6.898-.549-2.322-.03-4.674,2.073-6.19,3.482-.906.842-1.131,1.11-.503,2.208.685,1.103,1.58,2.073,2.639,2.867,3.792,3.071,8.968,5.982,11.191,10.332.892,2.032.731,4.342-.438,6.247-1.183,2.086-3.538,2.57-5.409,3.92-2.359,1.386-4.9,2.471-7.559,3.228-1.143.536-2.324,1-3.531,1.39-1.432.508-3.042.212-4.169-.767-.896-1.057.104-3.597,1.692-4.528,2.491-1.226,5.158-2.095,7.918-2.579,5.922-1.505,4.824-5.905,1.492-9.406-3.079-3.241-9.726-5.368-10.854-9.907-.643-2.601.718-3.95,2.46-5.728.625-.641.983-1.321,1.633-1.897,1.029-.884,2.194-1.611,3.456-2.161,3.874-1.645,10.227-3.021,13.771-.04,1.054.887,1.152,1.402.806,2.387Z" fill="#f2ede7"/>
        <path d="m199.246,359.47c.019,2.209-1.632,4.116-3.924,4.534-1.312.311-2.668.41-4.014.293-.605-.028-2.417-.51-2.915.005s-.115,1.945-.168,2.627c-.118,1.42-.366,2.828-.564,4.24-.291,2.788-.27,5.596.065,8.377.099,2.256.339,4.506.718,6.736.241,1.901.303,3.818.184,5.73.058,1.748.399,3.183-1.63,3.806-1.348.553-2.904.392-4.093-.426-1.541-1.311-1.286-3.944-1.367-5.719-.109-2.411.099-4.039.142-6.447.043-2.474-.238-4.947-.025-7.419.201-2.31.628-4.572.61-6.903.184-1.446.023-2.912-.471-4.292-.559-.471-1.265-.753-2.011-.805-1.614-.287-3.279-.019-4.893-.262-1.874-.168-3.509-1.269-4.292-2.89-.581-2.023,1.743-3.251,3.565-3.209,2.31.056,4.584.662,6.932.714,2.482.053,4.844-.324,7.332-.123,1.328.147,2.671.127,3.994-.063,1.054-.355,2.145-.603,3.255-.74,1.313.035,3.43.809,3.57,2.237Z" fill="#f2ede7"/>
        <path d="m223.365,363.514c-.861,2.938-.062,5.893-.738,8.889-.297,1.327-.231,2.506-.582,3.805-.391,1.159-.551,2.376-.473,3.59.122,3.191-2.234,6.075-2.689,9.164-.256,1.808-.959,2.216-1.834,3.924-1.584,3.096-5.382,3.669-8.869,2.473-2.965-.663-5.328-2.777-6.193-5.542-1.097-3.212-1.259-6.583-2.203-9.83-1.527-6.205-1.937-12.611-1.214-18.947.173-2.454.929-4.475,4.011-4.248,3.541.262,4.293,2.339,3.615,5.076-.648,2.591-2.345,6.1-1.68,8.713.225.575.414,1.162.566,1.759.113.912-.185,1.076-.194,1.834.174,1.414.602,2.789,1.264,4.068.476,1.276-.03,2.286.261,3.606.338,1.521.398,3.37.703,4.571.238,1.149,1.06,2.114,2.195,2.576,1.135.463,2.44.364,3.486-.262,3.042-1.345,2.752-7.722,3.03-10.051.406-3.443.414-6.799.853-10.231.236-1.368.273-2.763.11-4.14-.218-1.394-1.511-3.628-.769-4.638.779-1.071,2.012-1.768,3.378-1.91,1.363-.14,2.726.288,3.729,1.175.834,1.405.922,3.101.239,4.578Z" fill="#f2ede7"/>
        <path d="m254.162,376.825c-.215,1.053-.599,2.07-1.141,3.014-.31.908-.049,2.099-.462,2.953-1.622,2.266-3.756,4.165-6.246,5.559-1.946.948-4.031,1.62-6.185,1.996-2.916.72-4.003,2.244-6.321,3.714-4.146,2.638-5.068-3.681-5.569-6.323-.179-2.188-.508-4.365-.982-6.513-.468-1.949-.661-3.95-.577-5.948.191-2.458.098-4.927-.278-7.365-.469-1.869-2.582-2.642-3.161-4.286-.905-2.574,1.638-3.244,3.589-3.905,1.353-.756,2.97-.964,4.486-.575.988.281,1.914.872,2.894,1.208,2.735.937,5.57.794,8.117,2.238,1.954,1.018,3.734,2.313,5.277,3.836,2.612,2.912,6.739,6.174,6.557,10.397Zm-7.436-3.946c-1.712-1.625-3.614-3.061-5.668-4.279-1.638-.94-6.565-3.95-8.491-2.651-1.868,1.262.034,6.293-.096,8.113-.317,3.137-.149,6.3.498,9.391-.041,1.565.41,4.6,2.451,4.61,2.303.011,6.607-2.593,8.421-3.845,3.753-2.59,6.71-7.788,2.884-11.34Z" fill="#f2ede7"/>
        <path d="m262.969,392.862c-.897,3.006-5.288,2.924-6.937.511-1.4-2.054-.317-5.42-.292-7.653.033-2.95-.46-5.883-.576-8.834-.135-3.409-.945-6.705-1.054-10.132-.16-2.453-.146-4.916.047-7.369.172-1.464,2.887-2.226,4.127-2.1,3.048.302,2.531,3.714,2.499,5.817-.029,1.771.305,3.51.422,5.272.122,1.919-.021,3.838.151,5.752.058,1.701.215,3.399.471,5.084.37,1.754-.153,3.416.162,5.135.499,2.724,1.821,5.706.98,8.516Z" fill="#f2ede7"/>
        <path d="m292.277,383.052c-1.038,3.737-3.581,6.942-7.084,8.929-3.076,1.74-6.67,2.478-10.23,2.099-3.596-.53-6.599-3.616-8.69-6.245-1.539-1.927-2.502-4.211-2.791-6.611-.492-3.975.053-8.005,1.586-11.735,2.248-6.202,7.916-10.734,14.752-11.796,3.972-.416,6.317,1.638,8.963,4.066,2.429,2.429,3.923,5.56,4.24,8.892.469,4.143.217,8.333-.746,12.401Zm-4.223-10.026c.081-2.245-2.204-4.6-3.69-6.162-1.895-1.983-3.89-4.06-7.028-3.154-5.846,1.698-7.516,8.819-7.942,13.787-.257,2.922-.41,5.527,1.844,7.8,2.14,2.161,5.316,4.19,8.571,3.445,7.228-1.651,7.373-10.144,8.24-15.679l.004-.037Z" fill="#f2ede7"/>
      </g>
    </g>
  </g>
</svg>