<?xml version="1.0" encoding="UTF-8"?>
<svg id="b" data-name="Layer 2" xmlns="http://www.w3.org/2000/svg" width="349.505" height="305.359" viewBox="0 0 349.505 305.359">
  <g id="c" data-name="Layer 1">
    <g>
      <g>
        <path d="m147.699,108.711c-2.067,8.392-5.318,16.75-7.727,25.346-1.468,5.239-.8,17.225-8.411,17.115-5.657-.081-10.368-3.86-12.433-8.903-2.6-6.35,1.919-11.367,3.704-17.321,2.335-7.786,2.927-15.503,2.387-23.595-4.592-9.058-15.223-7.577-24.347-6.767-16.597,1.472-20.881,10.345-21.288,23.68-.407,13.336,2.92,18.81.587,30.119-1.096,5.312-4.747,7.532-9.53,8.675-4.782,1.144-8.894-1.203-11.83-4.812-3.005-8.889-2.861-16.701-.06-25.571,2.438-11.869,2.841-23.496,3.011-35.569-.363-11.054.788-21.774,1.76-32.831,2.077-12.092-1.493-25.984.956-37.658,1.702-8.113,9.353-9.158,16.242-3.708,8.72,6.898,6.692,19.273,5.605,31.226-1.219,13.402-1.655,24.596,14.437,29.139,5.808,1.056,13.097,1.604,18.595,1.259,5.23-.329,5.989.118,5.617-5.369-1.162-17.124-5.713-34.56-.958-51.75,1.231-4.113,3.666-7.06,7.882-8.293,4.216-1.233,7.949-.071,11.197,2.705,7.706,7.607,1.819,18.864,1.803,27.733-.043,22.455,8.267,42.956,2.801,65.149Z" fill="#747c50"/>
        <path d="m242.806,75.045c-10.378,14.16-13.733,21.941-30.954,24.26-1.181.159-2.389.134-3.558-.093-5.811-1.127-11.479-2.461-17.288-3.111-5.928-.664-11.377,3.571-12.032,9.5-.009.086-.019.172-.027.258-.047.454-.064.91-.049,1.366.448,13.703,10.064,36.76-8.287,40.531-15.307,3.145-14.809-17.556-15.194-28.704-.108-3.131.912-10.887,1.571-15.273.113-.752.136-1.517.093-2.276-.392-6.867.318-13.02,1.852-19.613.07-.302.155-.603.25-.898,1.708-5.308,3.253-10.606,3.59-16.201.408-6.768.856-13.107.493-19.978-.261-4.95-1.473-10.206-2.783-15.083-.06-.225-.132-.449-.208-.669-1.39-4.03-1.444-7.671-.123-11.783,1.811-4.938,5.32-8,10.745-8.211,7.049-.273,12.272.541,18.525,3.568.475.23,6.412,1.832,6.914,1.991,11.761,3.717,17.322,3.088,29.181,9.029,9.639,4.829,17.825,11.076,25.918,17.867.926.777,1.731,1.699,2.34,2.744,7.646,13.112-2.344,19.924-10.968,30.78Zm-53.7,2.552c.47.179.918.398,1.343.667,18.508,11.714,35.899-6.204,38.348-22.112,1.301-8.454-8.744-14.527-14.702-17.508-7.627-3.816-20.718-11.278-26.904-6.08-6.185,5.198-1.147,14.944-2.769,25.241-.494,1.893-.126,11.4,1.385,16.051.492,1.513,1.537,2.8,2.932,3.565.136.074.261.136.367.176Z" fill="#747c50"/>
        <path d="m346.159,23.466c-2.361,7.953-7.564,13.72-10.266,21.234-2.702,7.514-3.429,15.398-6.281,22.86-4.794,12.545-9.284,25.476-14.584,37.753-2.134,11.982-3.87,21.209-7.331,33.659-2.602,9.359-6.827,26.896-18.902,29.008-8.703,1.522-12.274-7.337-12.988-14.262,1.037-7.322,2.971-14.119,6.34-20.551,5.536-10.569,8.967-21.889,10.307-33.324.543-4.637,3.659-8.578,1.603-12.596-6.585-7.855-12.042-16.279-17.215-25.264-6.415-10.024-14.748-21.585-21.963-30.296-5.922-7.151-12.978-9.702-14.748-18.582-1.303-6.535,3.2-14.553,11.015-12.882,12.109,2.589,18.305,14.556,25.848,24.108,9.104,11.529,18.247,24.664,26.562,36.989,9.107-13.334,10.877-28.338,19.87-42.148,3.016-4.631,10.33-10.876,16.821-9.578,6.491,1.298,7.447,8.707,5.914,13.871Z" fill="#747c50"/>
      </g>
      <g>
        <path d="m122.394,295.356c-12.948,12.24-17.947-3.916-19.603-14.63-.718-13.648-1.892-26.805-3.838-40.191-1.001-3.759-1.518-7.483-1.561-11.376-4.189,1.949-6.787,4.748-8.132,9.141-2.512,6.292-5.046,11.748-7.694,18.254-3.991,9.81-5.749,24.577-17.853,27.692-14.968,3.853-14.335-12.731-17.908-22.126-2.764-7.267-3.99-12.354-4.812-19.607-.08-4.859-.923-9.756-2.533-14.258-8.792-10.131-8.274,15.421-8.585,18.457-1.339,13.04-.835,23.932-3.345,36.2-1.705,8.334-5.899,17.708-15.239,18.728-11.492,1.255-12.061-10.178-10.844-18.765-.753-8.775.325-16.46,3.33-24.629,3.154-11.015,6.611-21.681,9.082-32.982,4.114-18.812-1.641-40.648,8.476-57.833,10.117-17.185,24.142,5.106,27.495,14.992,6.49,19.136,9.136,37.539,14.34,56.622,8.405-10.881,14.592-21.124,19.812-34.137,5.255-13.101,8.52-28.575,20.214-38.086,5.496-4.47,12.2-3.91,16.096,1.931,1.456,6.828,1.655,13.247.788,20.108-.044,9.637-1.127,19.21-1.47,28.838.568,5.928,1.582,11.742,3.038,17.496,1.087,7.303,1.277,13.95,2.027,21.553,1.16,11.756,8.631,29.239-1.279,38.608Z" fill="#747c50"/>
        <path d="m216.784,234.186c-2.904,11.005-8.83,19.949-17.411,27.5-5.596,4.924-25.341,17.13-28.385,18.619-10.468,5.117-10.992,4.644-18.434,9.47-2.49,1.639-5.071,5.697-8.586,5.827-13.631.501-10.462-16.141-10.421-25.828.225-9.802-.393-22.178-.471-31.25-.043-4.977.164-6.796-.018-10.561-.282-5.827-.82-10.303-.812-15.91.017-11.723,2.065-22.02,2.544-34.176.385-9.763-4.856-20.624,9.969-21.871,11.911-1.002,23.622,7.656,34.056,12.918,4.63,3.289,8.195,6.812,11.331,11.427,3.19,3.469,7.027,6.219,10.269,9.64,7.002,6.734,13.325,13.888,19.132,21.676,2.698,8.088-1.042,14.604-2.763,22.522Zm-18.149-6.24c-.069-2.305-.474-4.455-1.303-6.621-1.279-5.207-3.662-9.199-7.522-12.926-9.327-10.426-19.51-20.164-31.123-27.499-1.676,8.529-2.66,33.376-2.771,38.991-.254,12.846-2.542,19.123-2.649,27.718-.118,9.542-.739,10.944,4.645,17.464,5.931-1.414,14.415-9.05,18.562-11.709,6.417-4.115,14.769-13.647,17.238-16.679,1.583-1.944,4.923-8.738,4.923-8.738Z" fill="#747c50"/>
        <path d="m344.166,289.351c-13.7,13.776-18.657-5.381-20.106-16.436-.71-15.222-1.881-29.951-3.851-44.915-.779-3.204-2.666-9.257-3.537-13.878-.17-.902-1.41-1.022-1.749-.169-1.723,4.326-3.632,7.644-4.726,11.413-2.571,6.89-5.218,13.421-7.905,20.462-4.053,10.616-5.69,27.503-18.445,30.913-15.772,4.217-14.892-14.836-18.551-25.261-2.836-8.082-4.68-16.036-5.802-24.426-.543-6.998-2.107-14.148-4.546-20.42-11.884-12.253-11.63,30.468-11.842,34.21-.914,16.075.272,28.481-1.967,42.671-1.521,9.64-5.417,19.829-15.157,21.578-11.985,2.152-15.909-9.173-16.021-19.034-.119-10.442,4.114-19.428,6.855-29.968,4.204-17.934,8.873-35.914,10.752-52.117,3.128-26.971-6.155-51.915,4.464-73.677,10.619-21.763,24.772,4.051,29.207,16.421,8.586,23.944,14.746,52.373,21.519,77.615,8.834-11.836,11.645-24.805,18.293-38.544,6.721-13.891,11.426-29.375,23.714-40.159,5.775-5.068,12.643-4.216,16.554,2.181,1.479,7.627,1.667,14.828.76,22.474-.071,10.767-.723,21.103-.449,31.863.169,6.635.454,13.475,1.95,19.926,1.04,8.115,1.346,15.655,2.02,24.079,1.042,13.025,9.054,32.654-1.433,43.199Z" fill="#747c50"/>
      </g>
    </g>
  </g>
</svg>